<?xml version="1.0" encoding="utf-8"?>
<!-- Generator: Adobe Illustrator 18.1.1, SVG Export Plug-In . SVG Version: 6.00 Build 0)  -->
<svg version="1.1" id="Layer_1" xmlns="http://www.w3.org/2000/svg" xmlns:xlink="http://www.w3.org/1999/xlink" x="0px" y="0px"
	 width="205px" height="32px" viewBox="0 0 205 32" enable-background="new 0 0 205 32" xml:space="preserve">
<g>
	<g>
		<g>
			<g>
				<path fill="#FFFFFF" d="M20.643,0.945v1.394c0,0-2.506-0.936-4.126,0.76c-1.176,1.239-1.267,2.595-0.746,4.429
					c5.33,0,6.125,2.961,6.125,2.961l-0.518-3.379l1.658-2.024C23.048,2.667,21.062,1.083,20.643,0.945"/>
			</g>
			<g>
				<path fill="#231F20" d="M21.759,4.399c0,0.355-0.278,0.633-0.633,0.633s-0.633-0.278-0.633-0.633s0.278-0.633,0.633-0.633
					C21.453,3.741,21.759,4.044,21.759,4.399"/>
			</g>
			<g>
				<path d="M21.935,10.525c0,0-0.835-4.076-6.125-2.961c-0.545-1.834-0.43-3.203,0.746-4.429c1.62-1.697,4.101-0.76,4.101-0.76
					V0.981c-0.873-0.416-1.721-0.479-2.658-0.479c-3.404,0-5.305,2.556-6.114,4.277L2.267,22.423l2.707-0.507L0,31.498l3.468-0.633
					l2.644-7.53C13.62,23.335,23.265,20.627,21.935,10.525"/>
			</g>
			<g>
				<polygon fill="#231F20" points="25.163,7.12 23.048,5.071 21.39,7.12 				"/>
			</g>
			<g>
				<path fill="#FFFFFF" d="M7.379,21.159c0,0,0.24-0.039,0.672-0.151c0.43-0.091,1.063-0.242,1.785-0.432
					c0.366-0.113,0.757-0.215,1.176-0.353c0.419-0.127,0.848-0.303,1.292-0.482c0.43-0.176,0.873-0.391,1.303-0.633
					c0.43-0.24,0.848-0.518,1.267-0.835c0.113-0.088,0.204-0.151,0.303-0.24l0.278-0.242c0.176-0.176,0.366-0.353,0.521-0.518
					c0.176-0.176,0.328-0.366,0.482-0.57c0.063-0.088,0.127-0.204,0.215-0.278l0.113-0.151l0.088-0.151
					c0.063-0.113,0.127-0.204,0.176-0.303c0.039-0.116,0.116-0.204,0.151-0.306c0.028-0.039,0.039-0.113,0.088-0.151
					c0.025-0.039,0.039-0.113,0.063-0.151c0.039-0.113,0.088-0.204,0.127-0.303c0.091-0.204,0.154-0.394,0.218-0.598
					c0.063-0.201,0.113-0.366,0.176-0.567c0.039-0.179,0.088-0.355,0.127-0.521c0.025-0.176,0.063-0.328,0.088-0.482
					c0.025-0.154,0.039-0.278,0.039-0.419c0.025-0.124,0.025-0.264,0.039-0.364c0.025-0.43,0.039-0.697,0.039-0.697l0.391,0.025
					c0,0-0.025,0.267-0.039,0.722c-0.025,0.113-0.025,0.24-0.039,0.366c-0.011,0.127-0.025,0.278-0.063,0.432
					c-0.025,0.151-0.063,0.328-0.088,0.504c-0.039,0.179-0.088,0.355-0.127,0.545c-0.039,0.19-0.127,0.366-0.176,0.595
					c-0.063,0.204-0.151,0.394-0.24,0.609c-0.039,0.113-0.091,0.201-0.154,0.303c-0.025,0.039-0.036,0.113-0.063,0.151
					c-0.025,0.039-0.063,0.113-0.088,0.151c-0.063,0.116-0.113,0.204-0.176,0.306c-0.063,0.113-0.127,0.201-0.204,0.303
					c-0.036,0.039-0.063,0.113-0.113,0.151l-0.113,0.151c-0.063,0.113-0.154,0.204-0.215,0.303c-0.154,0.204-0.331,0.394-0.507,0.57
					c-0.179,0.204-0.369,0.355-0.57,0.521l-0.303,0.24c-0.113,0.088-0.204,0.151-0.303,0.24c-0.419,0.306-0.851,0.57-1.306,0.81
					c-0.454,0.242-0.898,0.432-1.355,0.609c-0.454,0.176-0.898,0.328-1.303,0.454c-0.405,0.127-0.835,0.242-1.204,0.331
					c-0.746,0.176-1.38,0.303-1.81,0.391C7.618,21.106,7.379,21.159,7.379,21.159"/>
			</g>
		</g>
	</g>
	<g>
		<path d="M43.63,20.107V9.31l-4.467,10.797h-1.088L33.619,9.31v10.797h-2.556V5.55h3.594l3.95,9.582l3.974-9.582h3.594v14.556
			H43.63z"/>
		<path d="M55.655,20.107v-1.138c-0.785,0.898-2.013,1.394-3.404,1.394c-1.721,0-3.671-1.151-3.671-3.492
			c0-2.418,1.936-3.429,3.671-3.429c1.418,0,2.644,0.454,3.404,1.355v-1.57c0-1.228-1-1.961-2.468-1.961
			c-1.176,0-2.203,0.43-3.115,1.33l-0.936-1.595c1.228-1.151,2.746-1.697,4.429-1.697c2.33,0,4.379,0.986,4.379,3.823v6.988
			C57.947,20.107,55.655,20.107,55.655,20.107z M55.655,17.716v-1.595c-0.518-0.722-1.507-1.088-2.506-1.088
			c-1.292,0-2.253,0.746-2.253,1.898c0,1.14,0.961,1.873,2.253,1.873C54.149,18.804,55.124,18.438,55.655,17.716z"/>
		<path d="M68.325,20.107v-1.443c-0.81,1.049-2.024,1.697-3.379,1.697c-2.707,0-4.696-2.049-4.696-5.52
			c0-3.404,1.961-5.544,4.696-5.544c1.303,0,2.531,0.609,3.379,1.721V5.537h2.292v14.556h-2.292V20.107z M68.325,16.956v-4.189
			c-0.518-0.785-1.633-1.418-2.721-1.418c-1.81,0-2.961,1.454-2.961,3.506c0,2.024,1.151,3.492,2.961,3.492
			C66.692,18.347,67.805,17.741,68.325,16.956z"/>
		<path d="M72.933,14.829c0-3.052,2.228-5.52,5.341-5.52c3.165,0,5.189,2.418,5.189,5.734v0.545h-8.139
			c0.176,1.595,1.38,2.897,3.355,2.897c1.025,0,2.253-0.419,2.988-1.151l1.049,1.507c-1.049,1-2.595,1.531-4.277,1.531
			C75.285,20.374,72.933,18.17,72.933,14.829z M78.273,11.197c-1.961,0-2.862,1.507-2.961,2.798h5.935
			C81.199,12.742,80.35,11.197,78.273,11.197z"/>
		<path d="M100.525,20.107l-2.443-7.72l-2.443,7.72h-2.404L89.957,9.574h2.38l2.228,7.657l2.506-7.657h2.013l2.506,7.657
			l2.228-7.657h2.38l-3.278,10.532H100.525z"/>
		<path d="M107.499,6.867c0-0.785,0.658-1.418,1.418-1.418c0.785,0,1.418,0.633,1.418,1.418s-0.633,1.418-1.418,1.418
			C108.157,8.285,107.499,7.652,107.499,6.867z M107.791,20.107V9.577h2.292v10.532h-2.292V20.107z"/>
		<path d="M113.501,17.664v-6.087h-1.735V9.563h1.746V6.677h2.292v2.886h2.14v2.013h-2.14v5.52c0,0.722,0.355,1.239,1,1.239
			c0.43,0,0.848-0.176,1.025-0.366l0.545,1.721c-0.419,0.391-1.088,0.672-2.165,0.672C114.448,20.374,113.501,19.413,113.501,17.664
			z"/>
		<path d="M127.145,20.107v-6.632c0-1.633-0.848-2.14-2.14-2.14c-1.151,0-2.165,0.697-2.707,1.418v7.354h-2.292V5.55h2.292v5.456
			c0.697-0.824,2.077-1.697,3.735-1.697c2.267,0,3.404,1.176,3.404,3.341v7.456C129.434,20.107,127.145,20.107,127.145,20.107z"/>
		<path d="M147.18,20.107l-2.443-7.72l-2.443,7.72h-2.404l-3.278-10.532h2.38l2.228,7.657l2.506-7.657h2.013l2.506,7.657
			l2.228-7.657h2.38l-3.278,10.532H147.18z"/>
		<path d="M160.888,20.107v-1.138c-0.785,0.898-2.013,1.394-3.404,1.394c-1.721,0-3.671-1.151-3.671-3.492
			c0-2.418,1.936-3.429,3.671-3.429c1.418,0,2.644,0.454,3.404,1.355v-1.57c0-1.228-1-1.961-2.468-1.961
			c-1.176,0-2.203,0.43-3.115,1.33l-0.936-1.595c1.228-1.151,2.746-1.697,4.429-1.697c2.33,0,4.379,0.986,4.379,3.823v6.988
			C163.179,20.107,160.888,20.107,160.888,20.107z M160.888,17.716v-1.595c-0.518-0.722-1.507-1.088-2.506-1.088
			c-1.292,0-2.253,0.746-2.253,1.898c0,1.14,0.961,1.873,2.253,1.873C159.384,18.804,160.356,18.438,160.888,17.716z"/>
		<path d="M166.016,22.817l1.063-1.658c0.848,0.986,1.936,1.355,3.341,1.355c1.507,0,3.115-0.697,3.115-2.862v-1.267
			c-0.813,1.052-2.013,1.746-3.382,1.746c-2.683,0-4.671-1.936-4.671-5.404c0-3.404,1.961-5.404,4.671-5.404
			c1.33,0,2.531,0.609,3.379,1.721V9.588h2.292v9.987c0,3.798-2.809,4.823-5.404,4.823
			C168.635,24.387,167.305,23.993,166.016,22.817z M173.533,16.689v-3.922c-0.507-0.785-1.633-1.418-2.707-1.418
			c-1.81,0-2.961,1.355-2.961,3.379s1.151,3.379,2.961,3.379C171.902,18.107,173.039,17.474,173.533,16.689z"/>
		<path d="M179.256,17.664v-6.087h-1.746V9.563h1.746V6.677h2.292v2.886h2.14v2.013h-2.14v5.52c0,0.722,0.355,1.239,1,1.239
			c0.43,0,0.848-0.176,1.025-0.366l0.545,1.721c-0.419,0.391-1.088,0.672-2.165,0.672C180.192,20.374,179.256,19.413,179.256,17.664
			z"/>
		<path d="M192.19,20.107v-1.138c-0.785,0.898-2.013,1.394-3.404,1.394c-1.721,0-3.671-1.151-3.671-3.492
			c0-2.418,1.936-3.429,3.671-3.429c1.418,0,2.644,0.454,3.404,1.355v-1.57c0-1.228-1-1.961-2.468-1.961
			c-1.176,0-2.203,0.43-3.115,1.33l-0.936-1.595c1.228-1.151,2.746-1.697,4.429-1.697c2.33,0,4.379,0.986,4.379,3.823v6.988
			C194.481,20.107,192.19,20.107,192.19,20.107z M192.19,17.716v-1.595c-0.518-0.722-1.507-1.088-2.506-1.088
			c-1.292,0-2.253,0.746-2.253,1.898c0,1.14,0.961,1.873,2.253,1.873C190.683,18.804,191.672,18.438,192.19,17.716z"/>
		<path d="M197.164,6.867c0-0.785,0.658-1.418,1.418-1.418c0.785,0,1.418,0.633,1.418,1.418s-0.633,1.418-1.418,1.418
			C197.822,8.285,197.164,7.652,197.164,6.867z M197.445,20.107V9.577h2.292v10.532h-2.292V20.107z"/>
		<path d="M202.708,20.107V5.55H205v14.556H202.708z"/>
	</g>
</g>
</svg>
