<?xml version="1.0" encoding="utf-8"?>
<!-- Generator: Adobe Illustrator 18.1.1, SVG Export Plug-In . SVG Version: 6.00 Build 0)  -->
<svg version="1.1" id="Layer_1" xmlns="http://www.w3.org/2000/svg" xmlns:xlink="http://www.w3.org/1999/xlink" x="0px" y="0px"
	 width="95px" height="15px" viewBox="0 0 95 15" enable-background="new 0 0 95 15" xml:space="preserve">
<g id="Group">
		<path id="Shape" fill="#AEB7B7" d="M70.531,7.087
			c-0.132-0.637-0.864-1.29-1.89-1.29s-1.743,0.711-1.743,2.188c0,1.479,0.717,2.188,1.743,2.188c1.026,0,1.758-0.65,1.89-1.289
			L70.531,7.087L70.531,7.087z M72.523,0.233v9.52l0.131,2.072h-1.832l-0.161-0.898c-0.322,0.738-1.128,1.102-2.255,1.102
			c-2.314,0-3.589-1.436-3.589-4.043c0-2.608,1.275-4.042,3.589-4.042c1.054,0,1.801,0.304,2.125,0.984V0.233H72.523L72.523,0.233z
			 M61.638,7.087c-0.13-0.637-0.834-1.29-1.86-1.29s-1.744,0.711-1.744,2.188c0,1.479,0.718,2.188,1.744,2.188s1.73-0.65,1.86-1.289
			V7.087L61.638,7.087z M63.63,6.218v3.536l0.131,2.072H61.93l-0.162-0.898c-0.321,0.738-1.098,1.102-2.226,1.102
			c-2.315,0-3.589-1.436-3.589-4.043c0-2.608,1.274-4.042,3.589-4.042c1.172,0,1.845,0.42,2.226,1.115l0.162-0.913h1.831
			L63.63,6.218L63.63,6.218z M49.51,8c0,1.593,0.646,2.203,1.73,2.203S52.968,9.594,52.968,8s-0.644-2.203-1.728-2.203
			S49.51,6.405,49.51,8L49.51,8z M47.43,7.985c0-2.666,1.465-4.042,3.81-4.042c2.343,0,3.808,1.376,3.808,4.042
			c0,2.667-1.464,4.043-3.808,4.043C48.895,12.029,47.43,10.652,47.43,7.985L47.43,7.985z M44.325,0.233h1.991v11.592h-1.991V0.233
			L44.325,0.233z M39.05,9.795c1.04,0,1.729-0.65,1.875-1.318V7.116C40.778,6.45,40.09,5.783,39.05,5.783
			c-1.025,0-1.801,0.507-1.801,2.029C37.25,9.319,38.026,9.795,39.05,9.795L39.05,9.795z M40.911,10.635
			c-0.352,0.711-1.187,0.986-2.182,0.986c-2.301,0-3.559-1.23-3.559-3.839s1.391-3.84,3.617-3.84c1.085,0,1.89,0.391,2.256,1.144
			l0.162-0.941h1.831l-0.132,2.072v5.637c0,2.115-1.611,3.072-3.837,3.072c-2.593,0-3.574-0.928-3.706-2.465l2.167-0.289
			c0.074,0.609,0.293,1.072,1.494,1.072c1.128,0,1.89-0.449,1.89-1.564L40.911,10.635L40.911,10.635z M28.886,5.131
			c0.425-0.725,1.216-1.188,2.417-1.188c1.801,0,2.856,0.869,2.856,2.709v5.173h-1.991V6.942c0-0.797-0.395-1.146-1.216-1.146
			c-1.011,0-1.758,0.683-1.948,1.276v4.752h-1.978V6.218l-0.132-2.072h1.832L28.886,5.131L28.886,5.131z M23.597,4.145h1.992v7.68
			h-1.992V4.145L23.597,4.145z M24.623,0.074c0.733,0,1.333,0.594,1.333,1.318c0,0.71-0.6,1.304-1.333,1.304
			c-0.718,0-1.318-0.594-1.318-1.304C23.305,0.668,23.904,0.074,24.623,0.074L24.623,0.074z M22.63,5.942
			c-1.508,0.028-2.431,0.913-2.652,1.594v4.29h-1.977V6.218L17.87,4.145h1.831l0.161,1.435c0.411-0.869,1.187-1.637,2.769-1.637
			L22.63,5.942L22.63,5.942z M12.993,5.841c-1.026,0-1.714,0.652-1.861,1.29v1.826c0.147,0.637,0.835,1.289,1.861,1.289
			c1.025,0,1.801-0.738,1.801-2.216C14.794,6.551,14.017,5.841,12.993,5.841L12.993,5.841z M11.132,14.724H9.139V6.218L9.008,4.146
			h1.831l0.162,0.941c0.366-0.782,1.406-1.144,2.314-1.144c2.389,0,3.559,1.434,3.559,4.042s-1.215,4.043-3.559,4.043
			c-1.172,0-1.904-0.363-2.182-0.971v3.667H11.132z M6.079,9.593c0-0.58-0.528-0.666-1.699-0.768
			c-1.509-0.13-3.178-0.361-3.178-2.389c0-1.885,1.845-2.492,3.354-2.492c2.344,0,3.252,0.782,3.457,2.42l-2.051,0.26
			C5.874,6.016,5.537,5.638,4.556,5.638c-0.674,0-1.23,0.175-1.23,0.682c0,0.521,0.425,0.594,1.567,0.71
			c1.553,0.16,3.266,0.348,3.266,2.406c0,1.957-1.698,2.594-3.647,2.594c-2.358,0-3.427-0.855-3.544-2.506l2.05-0.262
			c0.088,0.768,0.514,1.115,1.494,1.115C5.522,10.375,6.079,10.203,6.079,9.593L6.079,9.593z"/>

		<path id="Shape_1" fill="#43B1B0" d="M77.576,7.853
			c0.688,0,1.055-0.463,1.055-1.101c0-0.652-0.367-1.116-1.055-1.116c-0.673,0-1.04,0.464-1.04,1.116
			C76.536,7.391,76.902,7.853,77.576,7.853 M77.576,3.942c1.832,0,2.885,1.159,2.885,2.782c0,1.276-0.659,2.261-1.846,2.623
			c0.294,0.725,0.908,1.029,1.832,1.029c1.201,0,2.24-0.754,2.49-2.898c0.337-2.87,2.006-3.536,3.779-3.536
			c2.006,0,2.696,0.552,4.63,0.552c1.068,0,2.006-0.189,3.016-0.58c-0.719,2.971-3.105,5.462-6.401,5.462
			c-1.201,0-2.389-0.289-3.267-1.232c-0.352,2.566-2.079,3.885-4.263,3.885c-1.874,0-3.353-0.725-3.779-2.639
			c-1.245-0.332-1.949-1.346-1.949-2.666C74.704,5.102,75.758,3.942,77.576,3.942"/>
</g>
</svg>
