<?xml version="1.0" encoding="utf-8"?>
<!-- Generator: Adobe Illustrator 18.1.1, SVG Export Plug-In . SVG Version: 6.00 Build 0)  -->
<svg version="1.1" id="Layer_1" xmlns="http://www.w3.org/2000/svg" xmlns:xlink="http://www.w3.org/1999/xlink" x="0px" y="0px"
	 width="190px" height="30px" viewBox="0 0 190 30" enable-background="new 0 0 190 30" xml:space="preserve">
<path fill="#6B6A6A" d="M12.2,19.2c0-1.2-1.1-1.3-3.4-1.6c-3-0.3-6.4-0.7-6.4-4.8c0-3.8,3.7-5,6.7-5c4.7,0,6.5,1.6,6.9,4.9l-4,0.5
	c-0.2-1.2-0.8-2-2.8-2c-1.3,0-2.5,0.4-2.5,1.4c0,1.1,0.8,1.2,3.1,1.4c3.1,0.3,6.5,0.7,6.5,4.9c0,4-3.4,5.2-7.3,5.2
	c-4.7,0-6.8-1.7-7.1-5.1L6,18.5c0.2,1.6,1,2.3,3,2.3C11.1,20.8,12.2,20.5,12.2,19.2z M22.3,29.6h-4V12.4L18,8.2h3.7l0.3,1.9
	c0.7-1.6,2.8-2.3,4.6-2.3c4.8,0,7.1,2.9,7.1,8.2s-2.4,8.2-7.1,8.2c-2.3,0-3.8-0.7-4.4-2v7.4H22.3z M26,11.6c-2,0-3.4,1.3-3.7,2.6
	v3.7c0.3,1.3,1.7,2.6,3.7,2.6s3.6-1.5,3.6-4.5S28.1,11.6,26,11.6z M45.3,11.9c-3,0.1-4.9,1.8-5.3,3.2v8.7h-4V12.4l-0.3-4.2h3.7
	l0.3,2.9c0.8-1.8,2.4-3.3,5.5-3.3v4.1H45.3z M49.3,0C50.8,0,52,1.2,52,2.7c0,1.4-1.2,2.6-2.7,2.6c-1.4,0-2.6-1.2-2.6-2.6
	C46.6,1.2,47.8,0,49.3,0z M47.2,8.2h4v15.5h-4V8.2z M57.8,10.2c0.8-1.5,2.4-2.4,4.8-2.4c3.6,0,5.7,1.8,5.7,5.5v10.4h-4v-9.9
	c0-1.6-0.8-2.3-2.4-2.3c-2,0-3.5,1.4-3.9,2.6v9.6h-4V12.4l-0.3-4.2h3.7L57.8,10.2z M81.8,21.3c-0.7,1.4-2.4,2-4.4,2
	c-4.6,0-7.1-2.5-7.1-7.8s2.8-7.8,7.2-7.8c2.2,0,3.8,0.8,4.5,2.3l0.3-1.9H86l-0.3,4.2v11.4c0,4.3-3.2,6.2-7.7,6.2
	c-5.2,0-7.1-1.9-7.4-5l4.3-0.6c0.1,1.2,0.6,2.2,3,2.2c2.3,0,3.8-0.9,3.8-3.2v-2H81.8z M78.1,19.6c2.1,0,3.5-1.3,3.7-2.7v-2.8
	c-0.3-1.3-1.7-2.7-3.7-2.7s-3.6,1-3.6,4.1C74.5,18.7,76,19.6,78.1,19.6z M88.6,0.3h4v23.4h-4V0.3z M94.8,16c0-5.4,2.9-8.2,7.6-8.2
	s7.6,2.8,7.6,8.2s-2.9,8.2-7.6,8.2C97.8,24.1,94.8,21.4,94.8,16z M99,16c0,3.2,1.3,4.4,3.5,4.4s3.5-1.2,3.5-4.4s-1.3-4.4-3.5-4.4
	S99,12.8,99,16z M127.2,12.4v7.1l0.3,4.2h-3.7l-0.3-1.8c-0.6,1.5-2.2,2.2-4.4,2.2c-4.6,0-7.2-2.9-7.2-8.2s2.5-8.2,7.2-8.2
	c2.3,0,3.7,0.8,4.4,2.3l0.3-1.8h3.7L127.2,12.4z M123.2,14.2c-0.3-1.3-1.7-2.6-3.7-2.6S116,13,116,16s1.4,4.4,3.5,4.4
	c2,0,3.5-1.3,3.7-2.6V14.2z M145,0.3v19.2l0.3,4.2h-3.7l-0.3-1.8c-0.6,1.5-2.3,2.2-4.5,2.2c-4.6,0-7.2-2.9-7.2-8.2s2.5-8.2,7.2-8.2
	c2.1,0,3.6,0.6,4.2,2V0.3H145z M141,14.2c-0.3-1.3-1.7-2.6-3.8-2.6c-2,0-3.5,1.4-3.5,4.4s1.4,4.4,3.5,4.4c2,0,3.5-1.3,3.8-2.6V14.2z
	"/>
<path fill="#A6CC85" d="M155.1,7.8c3.7,0,5.8,2.3,5.8,5.6c0,2.6-1.3,4.6-3.7,5.3c0.6,1.5,1.8,2.1,3.7,2.1c2.4,0,4.5-1.5,5-5.9
	c0.7-5.8,4-7.1,7.6-7.1c4,0,5.4,1.1,9.2,1.1c2.1,0,4-0.4,6-1.2c-1.4,6-6.2,11-12.8,11c-2.4,0-4.8-0.6-6.5-2.5
	c-0.7,5.2-4.2,7.8-8.5,7.8c-3.7,0-6.7-1.5-7.6-5.3c-2.5-0.7-3.9-2.7-3.9-5.4C149.3,10.2,151.4,7.8,155.1,7.8z M155.1,15.7
	c1.4,0,2.1-0.9,2.1-2.2s-0.7-2.3-2.1-2.3c-1.3,0-2.1,0.9-2.1,2.3C153,14.8,153.7,15.7,155.1,15.7z"/>
</svg>
