<?xml version="1.0" encoding="utf-8"?>
<!-- Generator: Adobe Illustrator 18.1.1, SVG Export Plug-In . SVG Version: 6.00 Build 0)  -->
<svg version="1.1" id="Layer_1" xmlns="http://www.w3.org/2000/svg" xmlns:xlink="http://www.w3.org/1999/xlink" x="0px" y="0px"
	 width="400px" height="400px" viewBox="0 0 400 400" enable-background="new 0 0 400 400" xml:space="preserve">
<rect fill="#43B1B0" width="400" height="400"/>
<g>
	<circle fill="#FFFFFF" cx="274.402" cy="95.052" r="6.194"/>
	<path fill="#FFFFFF" d="M223.033,125.725c-5.203-17.757-4.273-30.936,7.078-42.928c15.608-16.49,39.777-7.448,39.777-7.448
		l0.026-13.597c-8.495-3.725-16.665-4.432-25.724-4.432c-33.012,0-51.373,24.611-59.149,41.412L92.144,269.488l26.224-4.909
		l-48.16,92.741l33.601-6.027l25.54-72.973c72.682,0,165.986-26.096,152.977-123.828
		C282.329,154.491,274.402,115.103,223.033,125.725z"/>
	<polygon fill="#FFFFFF" points="313.643,121.398 293.177,101.72 277.03,121.398 	"/>
</g>
</svg>
