<?xml version="1.0" encoding="utf-8"?>
<!-- Generator: Adobe Illustrator 15.0.0, SVG Export Plug-In . SVG Version: 6.00 Build 0)  -->
<!DOCTYPE svg PUBLIC "-//W3C//DTD SVG 1.1//EN" "http://www.w3.org/Graphics/SVG/1.1/DTD/svg11.dtd">
<svg version="1.1" id="Layer_1" xmlns="http://www.w3.org/2000/svg" xmlns:xlink="http://www.w3.org/1999/xlink" x="0px" y="0px"
	 width="20px" height="20px" viewBox="0 0 20 20" enable-background="new 0 0 20 20" xml:space="preserve">
<g>
	<path d="M15.48,10.175c-0.028,0.069-0.073,0.132-0.131,0.19l-7.772,7.772c-0.059,0.06-0.127,0.103-0.205,0.131
		c-0.078,0.03-0.146,0.045-0.205,0.045c-0.058,0-0.126-0.015-0.204-0.045c-0.079-0.028-0.146-0.071-0.205-0.131l-0.818-0.817
		c-0.059-0.059-0.103-0.116-0.131-0.176c-0.029-0.059-0.044-0.137-0.044-0.233c0-0.059,0.015-0.122,0.044-0.189
		c0.029-0.069,0.073-0.122,0.131-0.161l6.544-6.604L5.941,3.412C5.882,3.353,5.838,3.295,5.81,3.236
		C5.78,3.177,5.766,3.1,5.766,3.003c0-0.059,0.015-0.118,0.044-0.176C5.838,2.769,5.882,2.71,5.941,2.652l0.818-0.818
		c0.059-0.059,0.126-0.102,0.205-0.132C7.042,1.673,7.11,1.659,7.168,1.659c0.059,0,0.127,0.014,0.205,0.043
		c0.078,0.03,0.146,0.073,0.205,0.132l7.772,7.772c0.058,0.058,0.103,0.117,0.131,0.175c0.029,0.059,0.044,0.118,0.044,0.175
		C15.524,10.034,15.51,10.107,15.48,10.175z"/>
</g>
</svg>
