<?xml version="1.0" encoding="utf-8"?>
<!-- Generator: Adobe Illustrator 15.0.0, SVG Export Plug-In . SVG Version: 6.00 Build 0)  -->
<!DOCTYPE svg PUBLIC "-//W3C//DTD SVG 1.1//EN" "http://www.w3.org/Graphics/SVG/1.1/DTD/svg11.dtd">
<svg version="1.1" id="Layer_1" xmlns="http://www.w3.org/2000/svg" xmlns:xlink="http://www.w3.org/1999/xlink" x="0px" y="0px"
	 width="20px" height="20px" viewBox="0 0 20 20" enable-background="new 0 0 20 20" xml:space="preserve">
<g>
	<path d="M4.765,9.956c0-0.058,0.015-0.117,0.044-0.175c0.028-0.058,0.073-0.117,0.131-0.175l7.772-7.772
		c0.059-0.059,0.127-0.102,0.204-0.132c0.078-0.029,0.146-0.043,0.205-0.043s0.127,0.014,0.204,0.043
		c0.079,0.03,0.146,0.073,0.205,0.132l0.817,0.818c0.059,0.059,0.104,0.117,0.132,0.175c0.029,0.058,0.044,0.117,0.044,0.176
		c0,0.097-0.015,0.174-0.044,0.233c-0.028,0.059-0.073,0.116-0.132,0.175L7.804,9.956l6.544,6.604
		c0.059,0.039,0.104,0.092,0.132,0.161c0.029,0.067,0.044,0.131,0.044,0.189c0,0.097-0.015,0.175-0.044,0.233
		c-0.028,0.06-0.073,0.117-0.132,0.176l-0.817,0.817c-0.06,0.06-0.126,0.103-0.205,0.131c-0.077,0.03-0.146,0.045-0.204,0.045
		s-0.127-0.015-0.205-0.045c-0.077-0.028-0.146-0.071-0.204-0.131l-7.772-7.772c-0.058-0.058-0.103-0.121-0.131-0.19
		C4.779,10.107,4.765,10.034,4.765,9.956z"/>
</g>
</svg>
