<?xml version="1.0" encoding="utf-8"?>
<!-- Generator: Adobe Illustrator 18.1.1, SVG Export Plug-In . SVG Version: 6.00 Build 0)  -->
<svg version="1.1" id="Layer_1" xmlns="http://www.w3.org/2000/svg" xmlns:xlink="http://www.w3.org/1999/xlink" x="0px" y="0px"
	 width="20px" height="20px" viewBox="0 0 20 20" enable-background="new 0 0 20 20" xml:space="preserve">
<g id="Page-1">
	<path id="Imported-Layers-Copy" d="M13,19.124c-0.482,0.085-0.642-0.207-0.642-0.451v-2.574c0-0.878-0.297-1.439-0.642-1.732
		c2.112-0.233,4.335-1.025,4.335-4.624c0-1.025-0.371-1.867-0.975-2.513c0.098-0.244,0.419-1.195-0.099-2.488
		c-0.79-0.245-2.605,0.963-2.605,0.963c-0.753-0.207-1.568-0.317-2.371-0.317S8.383,5.498,7.63,5.705c0,0-1.815-1.208-2.618-0.963
		C4.506,6.035,4.827,6.986,4.926,7.23C4.321,7.877,3.95,8.718,3.95,9.743c0,3.586,2.211,4.391,4.322,4.624
		C8,14.611,7.754,15.013,7.667,15.623c-0.543,0.243-1.927,0.659-2.754-0.781c-0.518-0.891-1.456-0.964-1.456-0.964
		c-0.926-0.013-0.062,0.573-0.062,0.573c0.617,0.28,1.048,1.366,1.048,1.366c0.555,1.671,3.198,1.11,3.198,1.11
		c0,0.781,0.012,1.525,0.012,1.745c0,0.244-0.173,0.537-0.655,0.451c-3.765-1.244-6.482-4.758-6.482-8.894
		c0-5.172,4.248-9.369,9.483-9.369s9.484,4.197,9.484,9.369C19.483,14.367,16.766,17.88,13,19.124"/>
</g>
</svg>
