<?xml version="1.0" encoding="utf-8"?>
<!-- Generator: Adobe Illustrator 15.0.0, SVG Export Plug-In . SVG Version: 6.00 Build 0)  -->
<!DOCTYPE svg PUBLIC "-//W3C//DTD SVG 1.1//EN" "http://www.w3.org/Graphics/SVG/1.1/DTD/svg11.dtd">
<svg version="1.1" id="Layer_1" xmlns="http://www.w3.org/2000/svg" xmlns:xlink="http://www.w3.org/1999/xlink" x="0px" y="0px"
	 width="20px" height="20px" viewBox="0 0 20 20" enable-background="new 0 0 20 20" xml:space="preserve">
<g>
	<path d="M10.212,18.838c-4.881-0.01-8.834-3.978-8.824-8.858c0.01-4.881,3.978-8.834,8.859-8.825
		c4.882,0.01,8.834,3.978,8.823,8.859C19.062,14.896,15.094,18.849,10.212,18.838z M13.171,13.687c0-0.207-0.162-0.368-0.369-0.369
		l-1.105-0.002l0.012-5.895c0.001-0.207-0.16-0.369-0.366-0.369L7.657,7.044c-0.207,0-0.369,0.16-0.369,0.368L7.285,9.254
		c0,0.207,0.16,0.369,0.367,0.369l1.105,0.002L8.75,13.309l-1.105-0.002c-0.207-0.001-0.369,0.161-0.369,0.368l-0.003,1.842
		c0,0.207,0.16,0.368,0.367,0.369l5.158,0.01c0.207,0.001,0.369-0.16,0.369-0.366L13.171,13.687z M11.717,3.369
		C11.718,3.161,11.556,3,11.35,2.999L9.139,2.995c-0.207,0-0.369,0.16-0.369,0.368L8.766,5.205c0,0.207,0.161,0.369,0.368,0.369
		l2.211,0.004c0.206,0,0.368-0.161,0.369-0.367L11.717,3.369z"/>
</g>
</svg>
