<?xml version="1.0" encoding="utf-8"?>
<!-- Generator: Adobe Illustrator 18.1.1, SVG Export Plug-In . SVG Version: 6.00 Build 0)  -->
<svg version="1.1" id="Layer_1" xmlns="http://www.w3.org/2000/svg" xmlns:xlink="http://www.w3.org/1999/xlink" x="0px" y="0px"
	 width="20px" height="20px" viewBox="0 0 20 20" enable-background="new 0 0 20 20" xml:space="preserve">
<g id="listing-copy-2">
	<path id="Imported-Layers" d="M18.116,14.671c-0.146,0.335-0.358,0.63-0.638,0.887l-1.454,1.427
		c-0.292,0.27-0.604,0.472-0.936,0.608c-0.332,0.135-0.697,0.202-1.096,0.202c-0.412,0-0.79-0.067-1.135-0.202
		c-0.346-0.135-0.645-0.338-0.896-0.608l-2.072-2.044c-0.279-0.257-0.488-0.549-0.628-0.878c-0.139-0.328-0.209-0.691-0.209-1.09
		c0-0.385,0.07-0.746,0.209-1.08c0.139-0.334,0.361-0.636,0.667-0.906l-0.876-0.849c-0.279,0.27-0.595,0.479-0.946,0.627
		c-0.352,0.148-0.727,0.222-1.125,0.222c-0.399,0-0.774-0.068-1.126-0.203c-0.352-0.135-0.667-0.344-0.946-0.627L2.857,8.132
		C2.578,7.862,2.365,7.563,2.22,7.235c-0.146-0.327-0.219-0.684-0.219-1.07c0-0.386,0.073-0.742,0.219-1.071
		c0.145-0.328,0.358-0.627,0.637-0.896l1.454-1.427c0.292-0.27,0.604-0.466,0.936-0.588S5.944,2,6.343,2
		c0.412,0,0.79,0.068,1.136,0.203C7.824,2.338,8.123,2.54,8.375,2.811l2.072,2.006c0.279,0.27,0.488,0.566,0.628,0.887
		c0.14,0.321,0.209,0.682,0.209,1.08c0,0.386-0.069,0.749-0.209,1.09c-0.139,0.341-0.362,0.653-0.667,0.935l0.876,0.848
		c0.279-0.283,0.594-0.495,0.946-0.636c0.352-0.141,0.727-0.212,1.126-0.212c0.398,0,0.773,0.067,1.125,0.203
		c0.352,0.135,0.668,0.338,0.946,0.608l2.052,2.005c0.279,0.27,0.491,0.572,0.638,0.907c0.146,0.334,0.22,0.688,0.22,1.061
		C18.336,13.977,18.262,14.336,18.116,14.671L18.116,14.671z M9.301,6.416C9.254,6.313,9.185,6.217,9.092,6.127L7.06,4.102
		c-0.106-0.09-0.216-0.158-0.329-0.203S6.489,3.831,6.342,3.831c-0.119,0-0.236,0.022-0.349,0.068
		C5.88,3.944,5.777,4.012,5.685,4.102L4.211,5.529C4.104,5.606,4.032,5.703,3.992,5.818c-0.04,0.116-0.06,0.231-0.06,0.347
		c0,0.141,0.02,0.263,0.06,0.366s0.112,0.193,0.219,0.27l2.072,2.045c0.079,0.077,0.179,0.141,0.299,0.193
		C6.701,9.09,6.834,9.116,6.981,9.116c0.145,0,0.272-0.026,0.378-0.077C7.465,8.987,7.572,8.91,7.678,8.807
		c0-0.012-0.017-0.035-0.05-0.067c-0.034-0.032-0.076-0.074-0.13-0.126C7.445,8.563,7.402,8.518,7.369,8.479S7.312,8.415,7.3,8.402
		C7.286,8.39,7.263,8.367,7.23,8.335C7.196,8.303,7.16,8.267,7.12,8.228C7.08,8.177,7.053,8.135,7.04,8.103
		C7.026,8.071,7.02,8.035,7.02,7.997C6.993,7.946,6.98,7.901,6.98,7.862V7.727C6.98,7.585,7,7.463,7.04,7.36
		s0.113-0.205,0.219-0.309c0.093-0.09,0.193-0.157,0.298-0.203C7.664,6.803,7.783,6.78,7.916,6.78c0.053,0,0.103,0.004,0.15,0.01
		c0.046,0.006,0.096,0.009,0.149,0.009c0.026,0.026,0.063,0.048,0.11,0.068c0.046,0.019,0.09,0.042,0.129,0.067
		c0.053,0.038,0.093,0.068,0.12,0.087C8.6,7.04,8.626,7.057,8.653,7.069c0.026,0.026,0.057,0.055,0.09,0.087s0.076,0.074,0.13,0.125
		c0.052,0.052,0.089,0.094,0.109,0.125c0.02,0.032,0.043,0.061,0.07,0.087C9.158,7.39,9.238,7.278,9.291,7.156
		s0.08-0.248,0.08-0.377C9.371,6.642,9.347,6.519,9.301,6.416L9.301,6.416z M16.344,13.243c-0.04-0.116-0.113-0.212-0.22-0.289
		l-2.072-2.005c-0.08-0.103-0.179-0.173-0.299-0.212c-0.119-0.038-0.253-0.058-0.398-0.058c-0.147,0-0.272,0.026-0.379,0.077
		c-0.107,0.052-0.212,0.129-0.319,0.232c0.066,0.051,0.126,0.103,0.179,0.154c0.053,0.052,0.096,0.096,0.129,0.135
		c0.034,0.038,0.057,0.064,0.07,0.077s0.036,0.038,0.07,0.077c0.033,0.039,0.07,0.077,0.11,0.116c0.04,0.038,0.066,0.077,0.08,0.116
		c0.013,0.038,0.02,0.084,0.02,0.135c0.026,0.026,0.04,0.065,0.04,0.116v0.155c0,0.116-0.02,0.231-0.06,0.347
		s-0.113,0.212-0.219,0.289c-0.093,0.09-0.193,0.158-0.299,0.203s-0.226,0.067-0.359,0.067h-0.149c-0.047,0-0.096-0.006-0.149-0.019
		c-0.027-0.025-0.063-0.048-0.11-0.067c-0.047-0.019-0.09-0.042-0.129-0.068c-0.054-0.026-0.094-0.051-0.119-0.077
		c-0.027-0.025-0.053-0.045-0.08-0.058c-0.027-0.025-0.057-0.054-0.09-0.086s-0.076-0.074-0.129-0.125
		c-0.053-0.052-0.09-0.093-0.11-0.126c-0.02-0.032-0.043-0.048-0.07-0.048c-0.106,0.09-0.186,0.193-0.239,0.309
		s-0.079,0.238-0.079,0.366c0,0.142,0.023,0.27,0.07,0.386c0.046,0.116,0.116,0.213,0.209,0.289l2.032,2.006
		c0.106,0.09,0.216,0.157,0.329,0.203c0.112,0.045,0.242,0.067,0.388,0.067c0.119,0,0.236-0.022,0.349-0.067
		c0.112-0.045,0.216-0.112,0.309-0.203l1.474-1.389c0.107-0.102,0.179-0.206,0.22-0.308c0.04-0.103,0.06-0.225,0.06-0.367
		C16.403,13.475,16.383,13.359,16.344,13.243L16.344,13.243z"/>
</g>
</svg>
