<?xml version="1.0" encoding="utf-8"?>
<!-- Generator: Adobe Illustrator 18.1.1, SVG Export Plug-In . SVG Version: 6.00 Build 0)  -->
<svg version="1.1" id="Layer_1" xmlns="http://www.w3.org/2000/svg" xmlns:xlink="http://www.w3.org/1999/xlink" x="0px" y="0px"
	 width="20px" height="20px" viewBox="0 0 20 20" enable-background="new 0 0 20 20" xml:space="preserve">
<g id="Page-1">
	<path id="Imported-Layers" d="M3.25,6.092C3.949,4.896,4.896,3.948,6.092,3.25C7.276,2.551,8.579,2.202,10,2.202
		c1.409,0,2.712,0.349,3.908,1.048s2.143,1.646,2.842,2.842C17.449,7.289,17.798,8.59,17.798,10c0,1.41-0.349,2.712-1.048,3.908
		c-0.699,1.197-1.646,2.144-2.842,2.842c-1.196,0.699-2.499,1.048-3.908,1.048c-1.421,0-2.724-0.349-3.908-1.048
		c-1.196-0.699-2.144-1.646-2.842-2.842C2.551,12.711,2.202,11.41,2.202,10C2.202,8.591,2.551,7.289,3.25,6.092L3.25,6.092z
		 M4.617,6.643c0.024,0,0.042,0.03,0.053,0.089c0,0.059,0.006,0.095,0.018,0.107C4.7,6.863,4.741,6.857,4.812,6.821
		c0.059,0.048,0.071,0.107,0.035,0.178l0.444,0.284c0.13,0.118,0.201,0.19,0.213,0.213c0.012,0.071-0.024,0.13-0.106,0.178
		C5.386,7.663,5.356,7.634,5.309,7.586C5.249,7.538,5.22,7.527,5.22,7.551c-0.024,0.035-0.024,0.095,0,0.178
		c0.023,0.095,0.059,0.136,0.106,0.124c-0.047,0-0.077,0.059-0.089,0.178C5.213,8.137,5.202,8.256,5.202,8.386v0.231L5.22,8.635
		C5.196,8.718,5.213,8.837,5.273,8.99c0.059,0.142,0.131,0.207,0.213,0.195C5.403,9.197,5.473,9.339,5.699,9.611
		C5.734,9.67,5.758,9.7,5.769,9.7c0.024,0.024,0.065,0.053,0.125,0.089c0.059,0.035,0.112,0.065,0.16,0.089
		c0.035,0.035,0.065,0.071,0.089,0.107c0.035,0.036,0.071,0.113,0.107,0.231c0.036,0.118,0.083,0.201,0.142,0.249
		c-0.011,0.035,0.018,0.101,0.089,0.195c0.083,0.095,0.118,0.172,0.107,0.23L6.57,10.909H6.553c0.011,0.047,0.059,0.094,0.142,0.141
		c0.094,0.048,0.147,0.095,0.16,0.142c0.011,0.024,0.018,0.059,0.018,0.107c0.011,0.047,0.023,0.083,0.036,0.107
		c0.011,0.024,0.041,0.029,0.089,0.018c0.011-0.13-0.072-0.337-0.249-0.621c-0.106-0.178-0.166-0.278-0.178-0.302
		c-0.011-0.035-0.029-0.089-0.053-0.16c-0.012-0.071-0.024-0.118-0.036-0.142c0.012,0,0.029,0.006,0.053,0.018
		s0.053,0.024,0.089,0.035c0.024,0.012,0.047,0.024,0.071,0.036c0.023,0.012,0.029,0.024,0.018,0.035
		c-0.012,0.047-0.006,0.107,0.018,0.178c0.035,0.071,0.077,0.13,0.124,0.178c0.047,0.059,0.107,0.124,0.178,0.195
		s0.112,0.119,0.124,0.142c0.035,0.035,0.083,0.101,0.142,0.195c0.047,0.083,0.047,0.124,0,0.124c0.059,0,0.124,0.036,0.195,0.107
		c0.083,0.071,0.142,0.142,0.178,0.213c0.036,0.047,0.065,0.13,0.089,0.249c0.012,0.13,0.024,0.213,0.036,0.249
		C7.82,12.2,7.85,12.247,7.886,12.294c0.047,0.048,0.089,0.078,0.124,0.089l0.178,0.089l0.124,0.071
		c0.035,0.012,0.1,0.048,0.196,0.107c0.082,0.06,0.153,0.095,0.213,0.107c0.07,0.036,0.124,0.053,0.159,0.053
		c0.036,0,0.083-0.011,0.142-0.035c0.059-0.012,0.107-0.024,0.142-0.036c0.107-0.011,0.207,0.042,0.302,0.16
		c0.094,0.118,0.165,0.189,0.213,0.213c0.237,0.131,0.42,0.166,0.551,0.107c-0.012,0.012-0.012,0.035,0,0.071
		c0.024,0.048,0.053,0.101,0.089,0.16s0.065,0.112,0.089,0.16c0.024,0.035,0.041,0.059,0.053,0.071
		c0.035,0.048,0.095,0.101,0.178,0.16c0.095,0.059,0.16,0.113,0.195,0.16c0.036-0.035,0.059-0.071,0.072-0.107
		c-0.024,0.06,0,0.13,0.071,0.214c0.059,0.083,0.118,0.119,0.178,0.107c0.094-0.024,0.142-0.136,0.142-0.338
		c-0.213,0.107-0.379,0.048-0.498-0.178c0-0.011-0.006-0.029-0.018-0.053c-0.024-0.035-0.042-0.065-0.053-0.089
		c-0.012-0.024-0.018-0.053-0.018-0.089c-0.012-0.024-0.012-0.047,0-0.071c0-0.024,0.018-0.036,0.053-0.036
		c0.059,0,0.089-0.012,0.089-0.035c0.011-0.024,0.006-0.065-0.018-0.125c-0.011-0.059-0.024-0.1-0.035-0.124
		c-0.012-0.059-0.048-0.131-0.107-0.213c-0.071-0.083-0.113-0.13-0.125-0.142c-0.035,0.059-0.089,0.083-0.16,0.071
		c-0.083,0-0.136-0.029-0.16-0.089c0,0.012-0.006,0.029-0.018,0.053c-0.012,0.036-0.018,0.06-0.018,0.071
		c-0.094,0-0.148-0.005-0.16-0.018c0.012-0.011,0.024-0.071,0.036-0.178c0.011-0.094,0.024-0.171,0.035-0.231
		c0-0.023,0.018-0.059,0.053-0.107c0.024-0.059,0.048-0.112,0.071-0.16c0.024-0.035,0.036-0.077,0.036-0.124
		c0.012-0.035,0-0.065-0.036-0.089s-0.095-0.035-0.178-0.035c-0.13,0.012-0.219,0.083-0.266,0.213
		c-0.012,0.012-0.024,0.047-0.036,0.107c-0.012,0.048-0.03,0.083-0.053,0.106c-0.012,0.036-0.042,0.06-0.089,0.071
		c-0.048,0.024-0.125,0.03-0.231,0.018c-0.119,0-0.202-0.011-0.249-0.035c-0.094-0.059-0.172-0.16-0.231-0.301
		c-0.059-0.142-0.089-0.267-0.089-0.373c0-0.071,0.006-0.16,0.018-0.267c0.012-0.118,0.024-0.207,0.035-0.267
		c0-0.047-0.017-0.13-0.053-0.248c0.012-0.012,0.042-0.042,0.089-0.089c0.036-0.047,0.065-0.083,0.089-0.107
		c0.024-0.012,0.042-0.018,0.053-0.018h0.053c0.012,0,0.024-0.006,0.035-0.018c0.012-0.012,0.024-0.03,0.036-0.053
		c-0.012-0.012-0.03-0.024-0.053-0.035c-0.012-0.024-0.024-0.035-0.036-0.035c0.048,0.024,0.142,0.024,0.284,0
		c0.154-0.036,0.249-0.036,0.285,0c0.106,0.083,0.183,0.077,0.231-0.018l-0.036-0.089c-0.012-0.059-0.012-0.107,0-0.142
		c0.036,0.189,0.13,0.219,0.285,0.089c0.023,0.024,0.076,0.042,0.159,0.053c0.083,0.012,0.142,0.03,0.178,0.054
		c0.024,0.012,0.048,0.029,0.072,0.053c0.035,0.024,0.053,0.041,0.053,0.053c0.012,0,0.029-0.006,0.053-0.018
		c0.024,0,0.053-0.018,0.089-0.053c0.072,0.095,0.113,0.172,0.125,0.231c0.071,0.272,0.136,0.426,0.195,0.461
		c0.047,0.012,0.083,0.018,0.107,0.018c0.023-0.011,0.041-0.047,0.053-0.107v-0.142c-0.012-0.036-0.018-0.077-0.018-0.125
		l-0.018-0.071v-0.267c-0.106-0.024-0.172-0.065-0.195-0.124c-0.024-0.059-0.018-0.124,0.017-0.195
		c0.036-0.059,0.089-0.118,0.16-0.178c0-0.012,0.023-0.024,0.071-0.036c0.047-0.023,0.1-0.047,0.16-0.071
		c0.059-0.024,0.1-0.054,0.124-0.089c0.142-0.118,0.195-0.237,0.16-0.355c0.048,0,0.083-0.029,0.107-0.089
		c-0.012,0-0.03-0.006-0.053-0.018c-0.024-0.024-0.048-0.041-0.071-0.053c-0.024-0.012-0.041-0.018-0.053-0.018
		c0.059-0.036,0.065-0.095,0.017-0.178c0.036-0.012,0.065-0.048,0.089-0.107c0.012-0.047,0.036-0.083,0.072-0.107
		c0.059,0.083,0.13,0.095,0.213,0.036c0.047-0.059,0.053-0.118,0.018-0.178c0.024-0.047,0.089-0.083,0.195-0.107
		c0.107-0.024,0.171-0.053,0.196-0.089c0.047,0.012,0.071,0.006,0.071-0.018c0.011-0.024,0.018-0.065,0.018-0.124
		s0.011-0.101,0.035-0.125c0.023-0.035,0.071-0.065,0.142-0.089c0.082-0.023,0.13-0.041,0.142-0.053l0.16-0.107
		c0.023-0.024,0.023-0.035,0-0.035c0.13,0.012,0.237-0.029,0.32-0.124c0.071-0.071,0.053-0.136-0.053-0.195
		c0.012-0.048,0-0.083-0.035-0.107c-0.036-0.024-0.089-0.041-0.16-0.053h0.125c0.059,0,0.095-0.006,0.107-0.018
		c0.107-0.071,0.083-0.125-0.071-0.16c-0.119-0.036-0.267,0.006-0.444,0.124c-0.013,0-0.042,0.029-0.089,0.089
		c-0.048,0.059-0.096,0.095-0.142,0.107c0.011,0,0.029-0.018,0.053-0.053c0.011-0.036,0.029-0.071,0.053-0.107
		c0.011-0.048,0.023-0.071,0.036-0.071c0.035-0.047,0.106-0.101,0.213-0.16c0.095-0.035,0.272-0.077,0.533-0.124
		c0.224-0.047,0.396-0.012,0.515,0.107c-0.011-0.012,0.024-0.053,0.107-0.125c0.071-0.071,0.118-0.112,0.142-0.124
		c0.023-0.011,0.071-0.024,0.142-0.035c0.083-0.024,0.136-0.053,0.16-0.089l0.018-0.213c-0.083,0-0.142-0.023-0.177-0.071
		c-0.036-0.059-0.06-0.13-0.071-0.213c0,0.012-0.018,0.036-0.053,0.071c0-0.048-0.017-0.071-0.053-0.071
		c-0.024-0.012-0.06-0.012-0.107,0c-0.048,0.012-0.077,0.018-0.089,0.018c-0.071-0.024-0.124-0.047-0.16-0.071
		c-0.036-0.036-0.06-0.095-0.071-0.178c-0.024-0.083-0.042-0.131-0.053-0.142c-0.011-0.035-0.042-0.071-0.089-0.107
		c-0.047-0.047-0.083-0.082-0.106-0.106c0-0.024-0.007-0.048-0.018-0.072c-0.012-0.024-0.024-0.041-0.035-0.053
		c-0.012-0.024-0.024-0.041-0.035-0.053c-0.012-0.024-0.03-0.036-0.053-0.036c-0.024,0-0.048,0.018-0.071,0.053
		c-0.024,0.036-0.047,0.072-0.071,0.107s-0.041,0.053-0.053,0.053c-0.024-0.024-0.041-0.029-0.053-0.018h-0.053
		c-0.012,0.012-0.03,0.024-0.053,0.035c-0.013,0.012-0.024,0.024-0.036,0.036c-0.024,0.012-0.053,0.024-0.089,0.036
		c-0.035,0-0.066,0.006-0.088,0.017c0.094-0.035,0.088-0.071-0.018-0.106c-0.059-0.036-0.113-0.048-0.16-0.036
		c0.059-0.024,0.082-0.065,0.071-0.125c0-0.059-0.024-0.106-0.071-0.142h0.035c0-0.023-0.024-0.053-0.071-0.089
		c-0.06-0.023-0.119-0.053-0.178-0.089c-0.071-0.023-0.119-0.041-0.142-0.053c-0.048-0.036-0.16-0.071-0.338-0.107
		c-0.178-0.024-0.29-0.024-0.337,0c-0.036,0.048-0.053,0.083-0.053,0.107c0.011,0.035,0.029,0.083,0.053,0.142
		c0.023,0.071,0.035,0.113,0.035,0.125c0,0.047-0.024,0.095-0.071,0.142c-0.036,0.047-0.053,0.089-0.053,0.125
		c0,0.047,0.047,0.095,0.142,0.142c0.095,0.059,0.124,0.136,0.089,0.231c-0.012,0.048-0.066,0.101-0.16,0.16
		c-0.083,0.047-0.136,0.089-0.16,0.124c-0.035,0.047-0.042,0.106-0.018,0.178c0.024,0.071,0.059,0.13,0.107,0.177
		c0.012,0.012,0.018,0.024,0.018,0.035c0,0.012-0.012,0.03-0.036,0.053c-0.024,0.012-0.041,0.024-0.053,0.035
		c-0.012,0.012-0.036,0.024-0.071,0.036l-0.018,0.018c-0.083,0.035-0.155,0.018-0.213-0.054c-0.071-0.083-0.119-0.171-0.142-0.266
		c-0.047-0.177-0.101-0.278-0.16-0.302c-0.154-0.059-0.255-0.059-0.302,0c-0.024-0.083-0.16-0.172-0.408-0.266
		C9.926,6.068,9.73,6.056,9.505,6.092c0.036-0.012,0.036-0.065,0-0.16C9.458,5.837,9.392,5.802,9.31,5.826
		c0.023-0.048,0.035-0.107,0.035-0.178c0.011-0.083,0.018-0.13,0.018-0.142c0.024-0.094,0.065-0.172,0.125-0.231
		c0-0.011,0.023-0.041,0.071-0.088C9.594,5.14,9.624,5.092,9.648,5.045c0.024-0.035,0.024-0.053,0-0.053
		c0.237,0.024,0.408-0.018,0.515-0.125c0.036-0.024,0.077-0.077,0.125-0.16c0.035-0.083,0.071-0.142,0.106-0.178
		c0.059-0.035,0.107-0.053,0.142-0.053c0.024,0,0.071,0.018,0.142,0.053c0.059,0.035,0.107,0.053,0.142,0.053
		c0.095,0,0.148-0.036,0.16-0.107c0.011-0.083-0.012-0.154-0.071-0.213c0.082,0.012,0.089-0.047,0.017-0.178
		c-0.024-0.047-0.047-0.077-0.071-0.089c-0.083-0.024-0.178-0.005-0.285,0.053c-0.047,0.024-0.035,0.053,0.036,0.089
		c-0.012-0.012-0.047,0.024-0.107,0.106c-0.059,0.072-0.112,0.131-0.16,0.178c-0.059,0.036-0.112,0.018-0.16-0.053
		c-0.012-0.012-0.035-0.059-0.071-0.142c-0.024-0.083-0.053-0.13-0.089-0.142c-0.059,0-0.113,0.053-0.16,0.16
		c0.024-0.059-0.012-0.112-0.106-0.16C9.657,4.037,9.575,4.013,9.504,4.013c0.13-0.083,0.101-0.178-0.089-0.284
		C9.368,3.705,9.302,3.694,9.22,3.694c-0.095-0.012-0.166,0-0.213,0.035C8.983,3.777,8.966,3.812,8.954,3.836
		c0,0.036,0.017,0.066,0.053,0.089c0.036,0.024,0.071,0.042,0.107,0.053c0.035,0.013,0.077,0.024,0.124,0.036
		C9.274,4.038,9.303,4.05,9.327,4.05c0.095,0.071,0.118,0.118,0.072,0.142C9.387,4.204,9.357,4.216,9.31,4.228
		C9.274,4.252,9.238,4.269,9.203,4.281C9.168,4.293,9.144,4.305,9.132,4.317c-0.012,0.024-0.012,0.071,0,0.142
		C9.155,4.53,9.149,4.577,9.114,4.601C9.079,4.566,9.049,4.506,9.025,4.423c-0.024-0.082-0.048-0.136-0.071-0.16
		C9.001,4.322,8.918,4.34,8.705,4.316L8.598,4.298c-0.024,0-0.077,0.012-0.16,0.035c-0.083,0.012-0.154,0.012-0.213,0
		c-0.059,0-0.107-0.024-0.142-0.071c-0.024-0.059-0.024-0.13,0-0.213C8.095,4.025,8.112,4.02,8.136,4.031
		C8.101,4.008,8.059,3.978,8.012,3.942C7.964,3.895,7.935,3.865,7.923,3.853c-0.32,0.095-0.64,0.231-0.959,0.409
		c0.036,0.012,0.077,0.012,0.125,0c0.035-0.024,0.076-0.047,0.124-0.071C7.272,4.155,7.308,4.138,7.32,4.138
		C7.545,4.043,7.687,4.02,7.747,4.066L7.8,4.013C7.895,4.12,7.96,4.202,7.995,4.262c-0.047-0.024-0.148-0.024-0.302,0
		C7.563,4.297,7.492,4.333,7.48,4.368c0.047,0.083,0.059,0.149,0.035,0.195C7.491,4.54,7.456,4.505,7.408,4.457
		C7.361,4.41,7.313,4.374,7.266,4.35c-0.048-0.035-0.101-0.053-0.16-0.053H6.875C5.892,4.842,5.099,5.594,4.494,6.553
		C4.541,6.602,4.582,6.632,4.617,6.643L4.617,6.643z M11.119,16.395c1.397-0.248,2.587-0.888,3.57-1.918
		c-0.024-0.024-0.065-0.042-0.125-0.054c-0.071,0-0.112-0.011-0.124-0.035c-0.13-0.047-0.213-0.071-0.248-0.071
		c0-0.047-0.013-0.094-0.036-0.142c-0.024-0.035-0.048-0.065-0.071-0.089c-0.035-0.011-0.077-0.035-0.124-0.071
		c-0.06-0.036-0.101-0.059-0.124-0.071c-0.013-0.012-0.036-0.036-0.072-0.071c-0.024-0.023-0.047-0.041-0.071-0.053
		c-0.012-0.011-0.035-0.023-0.071-0.035c-0.036-0.023-0.065-0.035-0.089-0.035c-0.012,0.012-0.042,0.018-0.089,0.018l-0.036,0.017
		c-0.024,0-0.041,0.006-0.053,0.018c-0.024,0.012-0.041,0.024-0.053,0.036c-0.024,0.012-0.042,0.018-0.053,0.018v0.035
		c-0.142-0.118-0.261-0.195-0.355-0.231c-0.035,0-0.077-0.018-0.124-0.053c-0.036-0.024-0.072-0.048-0.107-0.071
		c-0.024-0.012-0.053-0.018-0.089-0.018c-0.035,0.012-0.077,0.035-0.124,0.071c-0.035,0.035-0.053,0.088-0.053,0.16
		c-0.012,0.07-0.018,0.112-0.018,0.124c-0.047-0.035-0.047-0.094,0-0.178c0.047-0.083,0.053-0.142,0.018-0.177
		c-0.024-0.048-0.059-0.065-0.107-0.053c-0.06,0.012-0.101,0.03-0.125,0.053c-0.035,0.012-0.077,0.041-0.124,0.089
		c-0.048,0.035-0.077,0.053-0.089,0.053c-0.012,0.012-0.041,0.03-0.089,0.053c-0.035,0.036-0.065,0.066-0.089,0.089
		c-0.012,0.024-0.029,0.066-0.053,0.125c-0.024,0.048-0.041,0.083-0.053,0.107c-0.012-0.024-0.047-0.047-0.106-0.071
		c-0.072-0.011-0.107-0.029-0.107-0.053c0.012,0.071,0.024,0.19,0.036,0.355c0.024,0.166,0.042,0.296,0.053,0.391
		c0.047,0.201,0.005,0.361-0.124,0.479c-0.178,0.166-0.273,0.302-0.284,0.409c-0.024,0.154,0.018,0.242,0.125,0.267
		c0,0.047-0.03,0.118-0.089,0.213c-0.048,0.083-0.072,0.154-0.072,0.214C11.101,16.271,11.107,16.324,11.119,16.395L11.119,16.395z"
		/>
</g>
</svg>
