<?xml version="1.0" encoding="utf-8"?>
<!-- Generator: Adobe Illustrator 18.1.1, SVG Export Plug-In . SVG Version: 6.00 Build 0)  -->
<svg version="1.1" id="Layer_1" xmlns="http://www.w3.org/2000/svg" xmlns:xlink="http://www.w3.org/1999/xlink" x="0px" y="0px"
	 width="20px" height="20px" viewBox="0 0 20 20" enable-background="new 0 0 20 20" xml:space="preserve">
<path id="search" d="M19,16.7l-4.2-4.2c0.8-1.2,1.2-2.6,1.2-4C16,4.4,12.6,1,8.5,1S1,4.4,1,8.5S4.4,16,8.5,16c1.5,0,2.9-0.4,4-1.2
	l4.2,4.2L19,16.7L19,16.7z M4,8.5C4,6,6,4,8.5,4S13,6,13,8.5S11,13,8.5,13S4,11,4,8.5L4,8.5z"/>
</svg>
