<?xml version="1.0" encoding="utf-8"?>
<!-- Generator: Adobe Illustrator 18.1.1, SVG Export Plug-In . SVG Version: 6.00 Build 0)  -->
<svg version="1.1" id="Layer_1" xmlns="http://www.w3.org/2000/svg" xmlns:xlink="http://www.w3.org/1999/xlink" x="0px" y="0px"
	 width="20px" height="20px" viewBox="0 0 20 20" enable-background="new 0 0 20 20" xml:space="preserve">
<g id="Page-1">
	<path id="Imported-Layers" d="M16.819,6.565c0.011,0.149,0.011,0.3,0.011,0.449c0,4.569-3.541,9.835-10.01,9.835
		c-1.994,0-3.845-0.567-5.403-1.552C1.7,15.33,1.972,15.34,2.267,15.34c1.645,0,3.159-0.546,4.368-1.477
		c-1.547-0.033-2.843-1.027-3.29-2.397c0.218,0.032,0.436,0.053,0.664,0.053c0.315,0,0.632-0.043,0.926-0.117
		c-1.612-0.321-2.821-1.713-2.821-3.393V7.966c0.468,0.257,1.013,0.417,1.59,0.439c-0.947-0.621-1.568-1.68-1.568-2.879
		c0-0.642,0.174-1.231,0.479-1.744C4.347,5.879,6.95,7.249,9.87,7.399C9.816,7.142,9.783,6.875,9.783,6.607
		c0-1.905,1.568-3.457,3.518-3.457c1.013,0,1.928,0.417,2.57,1.091c0.795-0.149,1.557-0.439,2.233-0.835
		c-0.262,0.803-0.817,1.477-1.547,1.905c0.708-0.075,1.394-0.267,2.026-0.535C18.104,5.463,17.505,6.073,16.819,6.565"/>
</g>
</svg>
