<?xml version="1.0" encoding="utf-8"?>
<!-- Generator: Adobe Illustrator 15.0.0, SVG Export Plug-In . SVG Version: 6.00 Build 0)  -->
<!DOCTYPE svg PUBLIC "-//W3C//DTD SVG 1.1//EN" "http://www.w3.org/Graphics/SVG/1.1/DTD/svg11.dtd">
<svg version="1.1" id="Layer_1" xmlns="http://www.w3.org/2000/svg" xmlns:xlink="http://www.w3.org/1999/xlink" x="0px" y="0px"
	 width="20px" height="20px" viewBox="0 0 20 20" enable-background="new 0 0 20 20" xml:space="preserve">
<g>
	<path d="M18.817,8.444l-4.913,4.912c-0.114,0.116-0.268,0.183-0.431,0.183c-0.336,0-0.614-0.278-0.614-0.614v-2.456H10.71
		c-4.135,0-6.851,0.796-6.851,5.373c0,0.394,0.019,0.785,0.048,1.18c0.009,0.153,0.047,0.327,0.047,0.48
		c0,0.183-0.115,0.336-0.307,0.336c-0.135,0-0.202-0.068-0.269-0.164c-0.144-0.201-0.25-0.508-0.355-0.729
		c-0.546-1.228-1.218-2.982-1.218-4.326c0-1.074,0.105-2.179,0.508-3.194c1.334-3.311,5.249-3.867,8.396-3.867h2.149V3.1
		c0-0.335,0.278-0.614,0.614-0.614c0.163,0,0.316,0.067,0.431,0.182l4.913,4.913C18.932,7.696,19,7.85,19,8.013
		S18.932,8.329,18.817,8.444z"/>
</g>
</svg>
