<?xml version="1.0" encoding="utf-8"?>
<!-- Generator: Adobe Illustrator 18.1.1, SVG Export Plug-In . SVG Version: 6.00 Build 0)  -->
<svg version="1.1" id="Layer_1" xmlns="http://www.w3.org/2000/svg" xmlns:xlink="http://www.w3.org/1999/xlink" x="0px" y="0px"
	 width="70px" height="22px" viewBox="0 0 70 22" enable-background="new 0 0 70 22" xml:space="preserve">
<g>
	<g>
		<path d="M28.83,14.115L27.14,8.79l-1.69,5.325h-1.659l-2.263-7.272h1.644l1.539,5.28l1.735-5.28h1.388l1.735,5.28l1.539-5.28
			h1.629l-2.263,7.272H28.83z"/>
		<path d="M38.274,14.115v-0.784c-0.543,0.619-1.388,0.966-2.353,0.966c-1.192,0-2.534-0.8-2.534-2.414
			c0-1.675,1.343-2.369,2.534-2.369c0.981,0,1.825,0.317,2.353,0.935V9.363c0-0.845-0.694-1.358-1.705-1.358
			c-0.815,0-1.524,0.302-2.157,0.92l-0.649-1.101c0.845-0.8,1.901-1.177,3.047-1.177c1.614,0,3.017,0.679,3.017,2.625v4.812h-1.554
			V14.115z M38.274,12.456v-1.101c-0.362-0.498-1.041-0.754-1.735-0.754c-0.89,0-1.554,0.513-1.554,1.312
			c0,0.784,0.664,1.297,1.554,1.297C37.233,13.21,37.912,12.954,38.274,12.456z"/>
		<path d="M41.819,15.971l0.739-1.147c0.588,0.679,1.343,0.935,2.308,0.935c1.041,0,2.157-0.483,2.157-1.976v-0.875
			c-0.558,0.724-1.388,1.207-2.338,1.207c-1.856,0-3.213-1.343-3.213-3.726c0-2.353,1.358-3.726,3.213-3.726
			c0.92,0,1.75,0.422,2.338,1.192V6.844h1.554v6.894c0,2.625-1.946,3.319-3.726,3.319C43.614,17.057,42.694,16.786,41.819,15.971z
			 M47.009,11.747v-2.7c-0.347-0.543-1.131-0.981-1.871-0.981c-1.252,0-2.052,0.935-2.052,2.338s0.8,2.338,2.052,2.338
			C45.877,12.727,46.662,12.29,47.009,11.747z"/>
		<path d="M50.946,12.426V8.232h-1.207V6.844h1.207V4.867h1.584v1.991h1.478v1.388H52.53v3.802c0,0.498,0.241,0.86,0.694,0.86
			c0.302,0,0.588-0.121,0.709-0.256l0.377,1.192c-0.287,0.272-0.754,0.468-1.494,0.468C51.595,14.296,50.946,13.633,50.946,12.426z"
			/>
		<path d="M60.239,14.115v-0.784c-0.543,0.619-1.388,0.966-2.353,0.966c-1.192,0-2.534-0.8-2.534-2.414
			c0-1.675,1.343-2.369,2.534-2.369c0.981,0,1.825,0.317,2.353,0.935V9.363c0-0.845-0.694-1.358-1.705-1.358
			c-0.815,0-1.524,0.302-2.157,0.92l-0.649-1.101c0.845-0.8,1.901-1.177,3.047-1.177c1.614,0,3.017,0.679,3.017,2.625v4.812h-1.554
			V14.115z M60.239,12.456v-1.101c-0.362-0.498-1.041-0.754-1.735-0.754c-0.89,0-1.554,0.513-1.554,1.312
			c0,0.784,0.664,1.297,1.554,1.297C59.198,13.21,59.877,12.954,60.239,12.456z"/>
		<path d="M63.377,4.988c0-0.543,0.453-0.981,0.981-0.981c0.543,0,0.981,0.438,0.981,0.981s-0.438,0.981-0.981,0.981
			C63.83,5.954,63.377,5.516,63.377,4.988z M63.573,14.115V6.844h1.584v7.272H63.573z"/>
		<path d="M66.892,14.115V4.083h1.584v10.032H66.892z"/>
	</g>
	<g>
		<g>
			<path fill="#231F20" d="M15.041,2.982c0,0.241-0.196,0.438-0.438,0.438c-0.241,0-0.438-0.196-0.438-0.438
				s0.196-0.437,0.438-0.437C14.83,2.529,15.041,2.74,15.041,2.982"/>
		</g>
		<g>
			<polygon fill="#231F20" points="17.394,4.867 15.931,3.449 14.784,4.867 			"/>
		</g>
		<path d="M15.162,7.221c0,0-0.573-2.821-4.239-2.052c-0.377-1.267-0.302-2.218,0.513-3.062c1.116-1.177,2.836-0.528,2.836-0.528
			V0.613c-0.603-0.287-1.192-0.332-1.841-0.332c-2.353,0-3.666,1.765-4.224,2.957L1.569,15.443l1.871-0.347L0,21.719l2.399-0.438
			l1.825-5.205C9.414,16.077,16.082,14.206,15.162,7.221z M12.853,8.232c-0.015,0.075-0.015,0.166-0.03,0.256
			c-0.015,0.091-0.015,0.196-0.045,0.302c-0.015,0.106-0.045,0.226-0.06,0.347c-0.03,0.121-0.06,0.241-0.091,0.377
			c-0.03,0.136-0.091,0.256-0.121,0.407c-0.045,0.136-0.106,0.272-0.166,0.422c-0.03,0.075-0.06,0.136-0.106,0.211
			c-0.015,0.03-0.03,0.075-0.045,0.106c-0.015,0.03-0.045,0.075-0.06,0.106c-0.045,0.075-0.075,0.136-0.121,0.211
			c-0.045,0.075-0.091,0.136-0.136,0.211c-0.03,0.03-0.045,0.075-0.075,0.106L11.722,11.4c-0.045,0.075-0.106,0.136-0.151,0.211
			c-0.106,0.136-0.226,0.272-0.347,0.392c-0.121,0.136-0.256,0.241-0.392,0.362l-0.211,0.166c-0.075,0.06-0.136,0.106-0.211,0.166
			c-0.287,0.211-0.588,0.392-0.905,0.558c-0.317,0.166-0.619,0.302-0.935,0.422s-0.619,0.226-0.905,0.317
			c-0.287,0.091-0.573,0.166-0.83,0.226c-0.513,0.121-0.95,0.211-1.252,0.272c-0.317,0.045-0.483,0.075-0.483,0.075
			s0.166-0.03,0.468-0.106c0.302-0.06,0.739-0.166,1.237-0.302c0.256-0.075,0.528-0.151,0.815-0.241s0.588-0.211,0.89-0.332
			c0.302-0.121,0.603-0.272,0.905-0.438c0.302-0.166,0.588-0.362,0.875-0.573c0.075-0.06,0.136-0.106,0.211-0.166l0.196-0.166
			c0.121-0.121,0.256-0.241,0.362-0.362c0.121-0.121,0.226-0.256,0.332-0.392c0.045-0.06,0.091-0.136,0.151-0.196l0.075-0.106
			l0.06-0.106c0.045-0.075,0.091-0.136,0.121-0.211s0.075-0.136,0.106-0.211c0.015-0.03,0.03-0.075,0.06-0.106
			c0.015-0.03,0.03-0.075,0.045-0.106c0.03-0.075,0.06-0.136,0.091-0.211c0.06-0.136,0.106-0.272,0.151-0.407
			c0.045-0.136,0.075-0.256,0.121-0.392c0.03-0.121,0.06-0.241,0.091-0.362c0.015-0.121,0.045-0.226,0.06-0.332
			s0.03-0.196,0.03-0.287c0.015-0.091,0.015-0.181,0.03-0.256c0.015-0.302,0.03-0.483,0.03-0.483l0.272,0.015
			C12.884,7.734,12.869,7.915,12.853,8.232z"/>
	</g>
</g>
</svg>
